<?xml version="1.0" encoding="UTF-8"?>
<svg width="1200pt" height="1200pt" version="1.1" viewBox="0 0 1200 1200" xmlns="http://www.w3.org/2000/svg">
 <g fill="#fff">
  <path d="m600 1047.8c-78.277-0.054688-155.11-21.078-222.51-60.875-67.402-39.801-122.92-96.93-160.77-165.45-1.5898-2.9141-0.51562-6.5703 2.4023-8.1602 2.9141-1.5898 6.5664-0.51562 8.1602 2.4023 40.777 73.93 102.62 134.07 177.68 172.75 75.047 38.688 159.91 54.18 243.79 44.508 83.879-9.6719 162.98-44.07 227.26-98.824 2.543-1.6875 5.9453-1.1992 7.9102 1.1328 1.9648 2.3359 1.8672 5.7695-0.23047 7.9883-79.109 67.488-179.7 104.55-283.68 104.52zm432-427.56c-3.3125 0-6-2.6875-6-6v-3.9609c-0.26953-73.719-19.578-146.12-56.055-210.18-36.477-64.062-88.887-117.61-152.14-155.46-2.8516-1.7227-3.7656-5.4297-2.0391-8.2812 1.7227-2.8477 5.4297-3.7617 8.2773-2.0391 64.914 39.016 118.67 94.113 156.07 159.97 37.395 65.859 57.172 140.25 57.414 215.99v3.9609c0.011719 3.1328-2.3945 5.7461-5.5195 6zm-334.32-197.88c-1.2422-0.003907-2.4531-0.37891-3.4805-1.0781l-181.92-126.72c-1.2539-0.9375-2.1094-2.3047-2.4023-3.8398-0.35156-1.5898 0-3.25 0.96094-4.5625l48-68.398c1.9492-2.6719 5.6719-3.3086 8.3984-1.4414l181.68 126.6c1.25 0.93359 2.1055 2.3047 2.3984 3.8398 0.35156 1.5859 0.003907 3.25-0.96094 4.5586l-48 68.52c-1.0703 1.5391-2.8086 2.4727-4.6797 2.5195zm-173.52-134.4 171.84 120 40.801-58.559-68.52-48-103.44-72z"/>
  <path d="m920.88 593.04c-3.1328 0.011719-5.75-2.3945-6-5.5195-3.6406-51.969-20.156-102.21-48.059-146.21-27.906-43.992-66.32-80.352-111.78-105.79-2.9375-1.6328-4.0078-5.3281-2.3984-8.2812 1.7148-2.8398 5.3516-3.8398 8.2812-2.2773 47.16 26.453 87.012 64.203 115.98 109.86 28.965 45.66 46.141 97.801 49.977 151.73 0.13281 1.5938-0.375 3.1719-1.4102 4.3906-1.0352 1.2148-2.5156 1.9688-4.1094 2.0898z"/>
  <path d="m600 938.16c-47.535 0.050782-94.508-10.277-137.64-30.258-43.133-19.977-81.383-49.133-112.08-85.422-2.1211-2.6836-1.6641-6.5781 1.0195-8.6992 2.6836-2.1211 6.5781-1.6641 8.6992 1.0195 51.359 60.531 123.66 99.473 202.46 109.06 78.805 9.5859 158.33-10.891 222.7-57.344 2.6094-1.4805 5.9141-0.75781 7.668 1.6758 1.7539 2.4297 1.3984 5.7969-0.82812 7.8047-55.75 40.633-123.02 62.41-192 62.16z"/>
  <path d="m697.68 422.4c-1.2422-0.003907-2.4531-0.37891-3.4805-1.0781l-171.24-119.28c-1.3047-0.92187-2.1914-2.3242-2.4609-3.9023-0.26953-1.5742 0.097656-3.1914 1.0195-4.4961 1.9219-2.7188 5.6836-3.3633 8.4023-1.4414l166.08 115.8 40.801-58.559-68.52-48c-1.332-0.90234-2.2461-2.2969-2.5391-3.875-0.29297-1.5781 0.058593-3.2109 0.97656-4.5273 1.9531-2.6719 5.6719-3.3086 8.4023-1.4375l73.559 51.121v-0.003906c1.2539 0.9375 2.1094 2.3047 2.3984 3.8398 0.35547 1.5898 0.003906 3.25-0.95703 4.5625l-48 68.52c-0.96875 1.5625-2.6094 2.5859-4.4414 2.7578z"/>
  <path d="m600 1047.8c-78.277-0.054688-155.11-21.078-222.51-60.875-67.402-39.801-122.92-96.93-160.77-165.45-1.5898-2.9141-0.51562-6.5703 2.4023-8.1602 2.9141-1.5898 6.5664-0.51562 8.1602 2.4023 40.777 73.93 102.62 134.07 177.68 172.75 75.047 38.688 159.91 54.18 243.79 44.508 83.879-9.6719 162.98-44.07 227.26-98.824 2.543-1.6875 5.9453-1.1992 7.9102 1.1328 1.9648 2.3359 1.8672 5.7695-0.23047 7.9883-79.109 67.488-179.7 104.55-283.68 104.52zm432-427.56c-3.3125 0-6-2.6875-6-6v-3.9609c-0.26953-73.719-19.578-146.12-56.055-210.18-36.477-64.062-88.887-117.61-152.14-155.46-2.8516-1.7227-3.7656-5.4297-2.0391-8.2812 1.7227-2.8477 5.4297-3.7617 8.2773-2.0391 64.914 39.016 118.67 94.113 156.07 159.97 37.395 65.859 57.172 140.25 57.414 215.99v3.9609c0.011719 3.1328-2.3945 5.7461-5.5195 6zm-334.32-197.88c-1.2422-0.003907-2.4531-0.37891-3.4805-1.0781l-181.92-126.72c-1.2539-0.9375-2.1094-2.3047-2.4023-3.8398-0.35156-1.5898 0-3.25 0.96094-4.5625l48-68.398c1.9492-2.6719 5.6719-3.3086 8.3984-1.4414l181.68 126.6c1.25 0.93359 2.1055 2.3047 2.3984 3.8398 0.35156 1.5859 0.003907 3.25-0.96094 4.5586l-48 68.52c-1.0703 1.5391-2.8086 2.4727-4.6797 2.5195zm-173.52-134.4 171.84 120 40.801-58.559-68.52-48-103.44-72z"/>
  <path d="m920.88 593.04c-3.1328 0.011719-5.75-2.3945-6-5.5195-3.6406-51.969-20.156-102.21-48.059-146.21-27.906-43.992-66.32-80.352-111.78-105.79-2.9375-1.6328-4.0078-5.3281-2.3984-8.2812 1.7148-2.8398 5.3516-3.8398 8.2812-2.2773 47.16 26.453 87.012 64.203 115.98 109.86 28.965 45.66 46.141 97.801 49.977 151.73 0.13281 1.5938-0.375 3.1719-1.4102 4.3906-1.0352 1.2148-2.5156 1.9688-4.1094 2.0898z"/>
  <path d="m600 938.16c-47.535 0.050782-94.508-10.277-137.64-30.258-43.133-19.977-81.383-49.133-112.08-85.422-2.1211-2.6836-1.6641-6.5781 1.0195-8.6992 2.6836-2.1211 6.5781-1.6641 8.6992 1.0195 51.359 60.531 123.66 99.473 202.46 109.06 78.805 9.5859 158.33-10.891 222.7-57.344 2.6094-1.4805 5.9141-0.75781 7.668 1.6758 1.7539 2.4297 1.3984 5.7969-0.82812 7.8047-55.75 40.633-123.02 62.41-192 62.16z"/>
  <path d="m697.68 422.4c-1.2422-0.003907-2.4531-0.37891-3.4805-1.0781l-171.24-119.28c-1.3047-0.92187-2.1914-2.3242-2.4609-3.9023-0.26953-1.5742 0.097656-3.1914 1.0195-4.4961 1.9219-2.7188 5.6836-3.3633 8.4023-1.4414l166.08 115.8 40.801-58.559-68.52-48c-1.332-0.90234-2.2461-2.2969-2.5391-3.875-0.29297-1.5781 0.058593-3.2109 0.97656-4.5273 1.9531-2.6719 5.6719-3.3086 8.4023-1.4375l73.559 51.121v-0.003906c1.2539 0.9375 2.1094 2.3047 2.3984 3.8398 0.35547 1.5898 0.003906 3.25-0.95703 4.5625l-48 68.52c-0.96875 1.5625-2.6094 2.5859-4.4414 2.7578z"/>
  <path d="m935.16 953.52c-19.449 0.085938-38.781-2.9961-57.238-9.1211-41.078-13.254-76.281-40.348-99.613-76.66-23.332-36.309-33.348-79.59-28.336-122.46 5.0117-42.867 24.738-82.672 55.816-112.62 31.082-29.949 71.586-48.191 114.61-51.617 4.8008 0 9.8398-0.60156 14.762-0.60156v0.003906c35.258-0.042968 69.805 9.9453 99.602 28.797 34.234 21.559 60.531 53.668 74.918 91.48 14.391 37.812 16.09 79.281 4.8477 118.14-11.242 38.863-34.82 73.02-67.176 97.309-32.355 24.289-71.734 37.398-112.19 37.348zm0-361.08c-4.6797 0-9.2383 0-13.801 0.60156v-0.003907c-43.688 3.6055-84.434 23.469-114.18 55.664-29.754 32.195-46.344 74.379-46.496 118.22 0.070312 36.898 11.809 72.836 33.535 102.66 21.723 29.828 52.324 52.023 87.426 63.414 17.27 5.6836 35.34 8.5625 53.52 8.5195 37.871 0.058594 74.73-12.207 105.02-34.945 30.285-22.734 52.352-54.707 62.867-91.09 10.512-36.383 8.9062-75.195-4.582-110.59-13.488-35.387-38.121-65.426-70.184-85.578-27.875-17.586-60.164-26.906-93.121-26.879zm0 285.12v-0.003906c-19.453 0.035156-38.57-5.0625-55.426-14.777-16.852-9.7109-30.848-23.695-40.574-40.543-1.2656-2.8008-0.20703-6.1094 2.4531-7.6562 2.6602-1.5469 6.0586-0.83203 7.8672 1.6562 14.609 25.184 39.594 42.625 68.27 47.656 28.672 5.0312 58.105-2.8594 80.414-21.559 22.312-18.703 35.223-46.305 35.277-75.414 0.058594-20.336-6.2344-40.18-18-56.762-18.469-26.246-48.551-41.871-80.641-41.879-5.6328-0.035156-11.258 0.44531-16.801 1.4375-3.2461 0.58594-6.3516-1.5586-6.9609-4.7969-0.58203-3.2461 1.5586-6.3555 4.8008-6.9609 6.2578-1.1328 12.602-1.6953 18.961-1.6797 35.984 0.027344 69.719 17.523 90.48 46.918 13.191 18.621 20.238 40.898 20.16 63.723-0.16016 27.719-10.656 54.383-29.43 74.777-18.773 20.395-44.48 33.051-72.09 35.5-2.6406 0.24219-5.7617 0.35938-8.7617 0.35938z"/>
  <path d="m844.68 825.24c-2.1289-0.011719-4.0938-1.1523-5.1602-3-18.109-31.277-19.781-69.438-4.4727-102.18 15.305-32.742 45.656-55.93 81.273-62.094 3.3125-0.53125 6.4297 1.7266 6.9609 5.0391 0.52734 3.3125-1.7266 6.4297-5.043 6.9609-31.551 5.6602-58.395 26.285-71.992 55.316s-12.258 62.859 3.5938 90.723c0.82031 1.3633 1.0547 3 0.64844 4.5352-0.41016 1.5391-1.4219 2.8477-2.8086 3.625-0.875 0.64062-1.918 1.0156-3 1.0781z"/>
  <path d="m1020 1146h-844.68c-3.3125 0-6-2.6875-6-6 0-27.625 10.973-54.117 30.508-73.652s46.027-30.508 73.652-30.508h648c27.688-0.09375 54.273 10.836 73.883 30.379 19.613 19.547 30.637 46.094 30.637 73.781 0 1.5898-0.63281 3.1172-1.7578 4.2422s-2.6523 1.7578-4.2422 1.7578zm-838.56-12h832.32c-1.5234-23.348-11.871-45.238-28.941-61.238-17.066-16-39.586-24.91-62.98-24.922h-648c-23.461-0.054688-46.066 8.8203-63.227 24.82-17.16 16-27.59 37.93-29.172 61.34z"/>
  <path d="m416.64 824.64h-291.6c-16.922-0.03125-33.141-6.7695-45.105-18.734s-18.703-28.184-18.734-45.105v-10.68c0-3.3164 2.6875-6 6-6h407.28c1.5898 0 3.1172 0.63281 4.2422 1.7578s1.7578 2.6484 1.7578 4.2422v10.68c-0.03125 16.922-6.7695 33.141-18.734 45.105s-28.184 18.703-45.105 18.734zm-343.44-68.641v4.6797c0.03125 13.738 5.5039 26.906 15.219 36.621 9.7148 9.7148 22.883 15.188 36.621 15.219h291.6c13.633-0.15625 26.66-5.668 36.27-15.344s15.027-22.738 15.09-36.375v-4.8008z"/>
  <path d="m597.6 566.16c-1.2422-0.007812-2.4531-0.38281-3.4805-1.082l-181.92-126.6c-1.25-0.93359-2.1094-2.3047-2.3984-3.8398-0.35156-1.5898-0.003906-3.25 0.96094-4.5625l100.08-144c0.89844-1.3281 2.2969-2.2422 3.875-2.5352s3.207 0.058593 4.5234 0.97656l181.92 126.96c2.6719 1.9492 3.3086 5.6719 1.4414 8.3984l-100.08 144.12c-0.93359 1.2539-2.3047 2.1094-3.8398 2.3984zm-173.52-134.16 172.08 120 93.121-133.92-171.96-120-5.2812 7.5586z"/>
  <path d="m745.44 353.88c-1.2422-0.003906-2.4531-0.37891-3.4805-1.0781l-181.92-126.6c-2.6719-1.9492-3.3086-5.6719-1.4375-8.3984l100.08-144c0.91016-1.2812 2.293-2.1445 3.8398-2.4023 1.5859-0.35156 3.25 0 4.5586 0.96094l181.92 126.84c2.6562 1.9062 3.2969 5.5898 1.4414 8.2812l-100.08 144h-0.003906c-1.1445 1.5625-2.9844 2.457-4.918 2.3984zm-173.52-134.16 172.08 119.76 93.121-133.92-172.08-120z"/>
  <path d="m510.48 588c-1.2422-0.003906-2.4531-0.38281-3.4805-1.0781l-89.039-62.039v-0.003906c-1.2812-0.90625-2.1445-2.2891-2.4023-3.8398-0.28516-1.5469 0.058594-3.1484 0.96094-4.4375l38.762-55.68c1.9062-2.6562 5.5859-3.2969 8.2773-1.4414l89.039 61.922 0.003906-0.003906c1.3203 0.94141 2.2266 2.3633 2.5195 3.9609 0.22656 1.5469-0.11719 3.125-0.96094 4.4414l-38.16 55.68c-1.25 1.7773-3.3594 2.7422-5.5195 2.5195zm-80.641-69.48 79.078 55.078 31.922-45.598-79.199-55.199z"/>
  <path d="m785.16 168c-1.2422-0.003906-2.4531-0.38281-3.4805-1.0781l-56.52-39.359v-0.003906c-1.2539-0.93359-2.1094-2.3047-2.3984-3.8398-0.35547-1.5859-0.003907-3.25 0.95703-4.5586l21.121-30.359c5.7383-8.2344 14.516-13.848 24.398-15.605 9.8828-1.7539 20.059 0.49219 28.281 6.2461l4.1992 2.8789c8.1641 5.625 13.773 14.254 15.602 24 1.7266 9.8945-0.51562 20.07-6.2422 28.32l-21.121 30.359h0.003907c-1.0273 1.7109-2.8125 2.8242-4.8008 3zm-48-46.922 46.559 32.52 17.762-25.441v0.003906c3.9336-5.6172 5.4492-12.578 4.1992-19.32-1.1328-6.7852-4.9922-12.809-10.68-16.68l-4.1992-2.8789c-5.6133-3.9453-12.566-5.4922-19.32-4.2969-6.7578 1.1914-12.758 5.0273-16.68 10.656z"/>
 </g>
</svg>
